<?xml version="1.0" encoding="UTF-8" standalone="no"?>
<!-- Created with Inkscape (http://www.inkscape.org/) -->

<svg
   xmlns:dc="http://purl.org/dc/elements/1.1/"
   xmlns:cc="http://creativecommons.org/ns#"
   xmlns:rdf="http://www.w3.org/1999/02/22-rdf-syntax-ns#"
   xmlns:svg="http://www.w3.org/2000/svg"
   xmlns="http://www.w3.org/2000/svg"
   xmlns:sodipodi="http://sodipodi.sourceforge.net/DTD/sodipodi-0.dtd"
   xmlns:inkscape="http://www.inkscape.org/namespaces/inkscape"
   id="svg3390"
   version="1.1"
   inkscape:version="0.91 r13725"
   width="1625"
   height="935"
   viewBox="0 0 1625 935"
   sodipodi:docname="porte.svg">
  

  <path
     style="fill:none;fill-rule:evenodd;stroke:#000000;stroke-width:1px;stroke-linecap:butt;stroke-linejoin:miter;stroke-opacity:1"
     d="m 262.49738,476.44649 5.446,-3.8122 31.04222,30.49762 -3.8122,5.99061 z"
     id="path3400"
     inkscape:connector-curvature="0" />
  <path
     style="fill:none;fill-rule:evenodd;stroke:#000000;stroke-width:1px;stroke-linecap:butt;stroke-linejoin:miter;stroke-opacity:1"
     d="m 306.0654,520.55912 3.81221,-3.8122 32.13142,31.04222 -2.723,4.3568 z"
     id="path3402"
     inkscape:connector-curvature="0" />
  <path
     style="fill:none;fill-rule:evenodd;stroke:#000000;stroke-width:1px;stroke-linecap:butt;stroke-linejoin:miter;stroke-opacity:1"
     d="m 257.59597,458.47468 5.44601,5.44601 25.05161,-24.50702 -4.9014,-3.8122 -25.05162,25.05161 z"
     id="path3404"
     inkscape:connector-curvature="0" />
  <path
     style="fill:none;fill-rule:evenodd;stroke:#000000;stroke-width:1px;stroke-linecap:butt;stroke-linejoin:miter;stroke-opacity:1"
     d="m 365.97144,441.04747 4.90141,4.9014 30.49762,-30.49762 -5.44601,-4.3568 z"
     id="path3406"
     inkscape:connector-curvature="0" />
  <path
     style="fill:none;fill-rule:evenodd;stroke:#000000;stroke-width:1px;stroke-linecap:butt;stroke-linejoin:miter;stroke-opacity:1"
     d="m 456.3751,371.88322 33.22063,35.39903 4.3568,-5.44601 -33.76522,-34.30982 z"
     id="path3408"
     inkscape:connector-curvature="0" />
  <path
     style="fill:none;fill-rule:evenodd;stroke:#000000;stroke-width:1px;stroke-linecap:butt;stroke-linejoin:miter;stroke-opacity:1"
     d="m 639.90543,250.98194 0.5446,7.07981 61.53984,-1.0892 0,-5.99061 z"
     id="path3410"
     inkscape:connector-curvature="0" />
  <path
     style="fill:none;fill-rule:evenodd;stroke:#000000;stroke-width:1px;stroke-linecap:butt;stroke-linejoin:miter;stroke-opacity:1"
     d="m 606.6848,395.30104 0,5.9906 47.38024,0 0,-7.0798 z"
     id="path3412"
     inkscape:connector-curvature="0" />
  <path
     style="fill:none;fill-rule:evenodd;stroke:#000000;stroke-width:1px;stroke-linecap:butt;stroke-linejoin:miter;stroke-opacity:1"
     d="m 665.50164,394.21184 0,8.71361 37.57743,-1.08921 0,-8.169 z"
     id="path3414"
     inkscape:connector-curvature="0" />
  <path
     style="fill:none;fill-rule:evenodd;stroke:#000000;stroke-width:1px;stroke-linecap:butt;stroke-linejoin:miter;stroke-opacity:1"
     d="m 656.24344,488.9723 7.0798,1.6338 0,33.76523 -8.169,-1.0892 z"
     id="path3416"
     inkscape:connector-curvature="0" />
  <path
     style="fill:none;fill-rule:evenodd;stroke:#000000;stroke-width:1px;stroke-linecap:butt;stroke-linejoin:miter;stroke-opacity:1"
     d="m 725.95228,336.4842 7.07981,0 0.5446,51.73704 -7.07981,-1.08921 z"
     id="path3418"
     inkscape:connector-curvature="0" />
  <path
     style="fill:none;fill-rule:evenodd;stroke:#000000;stroke-width:1px;stroke-linecap:butt;stroke-linejoin:miter;stroke-opacity:1"
     d="m 882.25259,335.395 8.7136,0 0,51.19243 -7.6244,-0.5446 z"
     id="path3420"
     inkscape:connector-curvature="0" />
  <path
     style="fill:none;fill-rule:evenodd;stroke:#000000;stroke-width:1px;stroke-linecap:butt;stroke-linejoin:miter;stroke-opacity:1"
     d="m 913.83941,395.30104 0,7.0798 34.85442,0 0,-7.6244 z"
     id="path3422"
     inkscape:connector-curvature="0" />
  <path
     style="fill:none;fill-rule:evenodd;stroke:#000000;stroke-width:1px;stroke-linecap:butt;stroke-linejoin:miter;stroke-opacity:1"
     d="m 962.85344,394.75644 0,7.0798 46.83566,-0.5446 -1.6338,-7.6244 z"
     id="path3424"
     inkscape:connector-curvature="0" />
  <path
     style="fill:none;fill-rule:evenodd;stroke:#000000;stroke-width:1px;stroke-linecap:butt;stroke-linejoin:miter;stroke-opacity:1"
     d="m 914.38401,250.98194 0,6.53521 62.62904,0 -1.0892,-7.62441 z"
     id="path3426"
     inkscape:connector-curvature="0" />
  <path
     style="fill:none;fill-rule:evenodd;stroke:#000000;stroke-width:1px;stroke-linecap:butt;stroke-linejoin:miter;stroke-opacity:1"
     d="m 1122.4213,398.56864 5.4461,5.44601 32.676,-31.58683 -6.5352,-4.3568 z"
     id="path3428"
     inkscape:connector-curvature="0" />
  <path
     style="fill:none;fill-rule:evenodd;stroke:#000000;stroke-width:1px;stroke-linecap:butt;stroke-linejoin:miter;stroke-opacity:1"
     d="m 1212.2804,414.36205 5.9906,-6.5352 33.7652,34.30982 -4.3568,4.9014 z"
     id="path3430"
     inkscape:connector-curvature="0" />
  <path
     style="fill:none;fill-rule:evenodd;stroke:#000000;stroke-width:1px;stroke-linecap:butt;stroke-linejoin:miter;stroke-opacity:1"
     d="m 1327.1911,438.32447 4.9014,-4.9014 23.4178,25.05161 -4.3568,5.44601 z"
     id="path3432"
     inkscape:connector-curvature="0" />
  <path
     style="fill:none;fill-rule:evenodd;stroke:#000000;stroke-width:1px;stroke-linecap:butt;stroke-linejoin:miter;stroke-opacity:1"
     d="m 1273.2756,546.15534 4.9015,5.446 32.1314,-32.13142 -4.9014,-2.723 z"
     id="path3434"
     inkscape:connector-curvature="0" />
</svg>
